<svg class="header__logo" xmlns="http://www.w3.org/2000/svg" id="Vrstva_1" viewBox="0 0 333.2 56.6" width="240">
			<path d="M157.9 28.4c0-9.1 6.4-17.6 16.7-17.6 5.2 0 8.4 1.5 11.7 4.3l-.7.8c-3.1-2.6-6.3-4.2-11.1-4.2-9.5 0-15.6 8.1-15.6 16.5v.1c0 8.8 5.8 16.5 15.7 16.5 5 0 9.2-2.2 12-4.6V29.3h-12.5v-1.1h13.5v12.3c-3.2 2.9-7.7 5.2-13.1 5.2-10.5.1-16.6-7.9-16.6-17.3zM197.1 11.4h13.8c4.4 0 7.6 1.1 9.7 3.2 1.5 1.5 2.4 3.7 2.4 6.3v.1c0 5.7-4.5 9.1-11.1 9.5l11.3 14.8h-1.3l-11.2-14.7h-12.5v14.7h-1.1V11.4zm13.3 18.1c7.8 0 11.6-3.7 11.6-8.5v-.1c0-5.4-4.2-8.5-11.2-8.5h-12.7v17.1h12.3zM229.8 28.4c0-9.3 6.6-17.5 16.8-17.5 10.2 0 16.8 8.2 16.8 17.4v.1c0 9.2-6.6 17.4-16.8 17.4-10.2 0-16.8-8.2-16.8-17.4zm32.6 0c0-8.7-6.4-16.6-15.8-16.6-9.5 0-15.7 7.7-15.7 16.4v.1c0 8.6 6.4 16.5 15.8 16.5 9.5.1 15.7-7.7 15.7-16.4zM271.5 30.3V11.4h1.1v18.8c0 9.7 5.2 14.5 12.7 14.5 7.6 0 12.6-4.8 12.6-14.5V11.4h1.1v18.8c0 10.3-5.5 15.5-13.7 15.5-8.2.1-13.8-5.1-13.8-15.4zM308.3 11.4h11.9c8.3 0 13 3.8 13 10.1v.1c0 6.6-5 10.3-13.2 10.3h-10.6v13.3h-1.1V11.4zM320 31c7.5 0 12.1-3.3 12.1-9.3v-.1c0-5.8-4.4-9.2-12-9.2h-10.7V31H320z" class="st0"></path>
			<path fill="#000" d="M0 0h142.8v56.6H0z"></path>
			<path fill="#fff" d="M14.8 15.1c.8-4.3 3.4-5.2 5.4-5.2 4.1 0 5 2.4 7.1 8.9l4 12.5h.1l4-12.5c2.1-6.5 3-8.9 7.1-8.9 2.1 0 4.7.9 5.4 5.2l3.3 18.6c.7 3.8 1.4 7.9 1.4 9.1 0 1.8-1.4 3.9-3.9 3.9-3.7 0-4.4-2.6-4.8-5.4l-2.4-16.1h-.1L36 43c-.8 2.6-2 3.7-4.5 3.7S27.8 45.6 27 43l-5.5-17.8h-.1L19 41.3c-.4 2.8-1.1 5.4-4.8 5.4-2.4 0-3.9-2.1-3.9-3.9 0-1.2.7-5.3 1.4-9.1l3.1-18.6zM63.2 16.9c1.5-4 2.7-7.5 6.9-7.5s5.5 3.5 7 7.5L85 38.3c1.1 2.9 1.2 3.9 1.2 5.1 0 2-1.6 3.4-4 3.4-2.7 0-3.6-1.7-4.3-4l-1-3.3H63.4l-1 3.3c-.8 2.3-1.6 4-4.3 4-2.3 0-4-1.3-4-3.4 0-1.2.2-2.2 1.2-5.1l7.9-21.4zm7.1 1.7h-.1l-4.4 13.3h8.6l-4.1-13.3zM88.1 14.3c0-2.9 1.7-4.4 4.1-4.4 2.4 0 4.1 1.5 4.1 4.4v24.5h8.8c2.6 0 4.1 1.4 4.1 3.8 0 2.3-1.5 3.8-4.1 3.8h-13c-2.1 0-4.1-1.5-4.1-4.1v-28zM110.8 14.3c0-2.9 1.7-4.4 4.1-4.4 2.4 0 4.1 1.5 4.1 4.4v24.5h8.8c2.6 0 4.1 1.4 4.1 3.8 0 2.3-1.5 3.8-4.1 3.8h-13c-2.1 0-4.1-1.5-4.1-4.1l.1-28z" class="st2"></path>
		</svg>
